<svg width="61" height="20" viewBox="0 0 61 20" fill="none" xmlns="http://www.w3.org/2000/svg">
<path fill-rule="evenodd" clip-rule="evenodd" d="M9.89285 19.725C15.2078 19.7214 19.5152 15.4119 19.5152 10.0962C19.5152 4.78044 15.2078 0.470804 9.89285 0.467346C13.6587 2.04104 16.305 5.75954 16.305 10.0962C16.305 14.4327 13.6587 18.1512 9.89285 19.725ZM24.6934 16.4435V2.87464H29.649C33.7018 2.87464 36.0996 5.32888 36.0996 9.62618C36.0996 13.9234 33.7111 16.4435 29.649 16.4435H24.6934ZM29.3951 4.92454H27.1195V14.3936H29.3951C32.122 14.3936 33.6265 12.7292 33.6265 9.63556C33.6265 6.59829 32.1032 4.92454 29.3951 4.92454ZM40.1996 16.4435H37.8582V2.87464H40.1996V16.4435ZM48.794 13.4626C48.5401 14.2902 47.7126 14.8355 46.6218 14.8355C45.0891 14.8355 44.1111 13.7635 44.1111 12.165V12.0239H51.0789V11.2623C51.0789 8.23448 49.3111 6.26922 46.4808 6.26922C43.6034 6.26922 41.7792 8.3473 41.7792 11.4974C41.7792 14.6756 43.5846 16.6409 46.5748 16.6409C48.935 16.6409 50.6841 15.3433 50.985 13.4626H48.794ZM46.4902 8.08403C47.8349 8.08403 48.7376 9.07139 48.7846 10.4819H44.13C44.224 9.09017 45.1738 8.08403 46.4902 8.08403ZM58.3852 16.4434L56.3165 12.8702H56.2695L54.2008 16.4434H51.7089L54.9248 11.4691L51.7371 6.47601H54.37L56.3823 9.97402H56.4293L58.4134 6.47601H60.9805L57.774 11.4033L60.9429 16.4434H58.3852ZM3.46757 0.467595C1.69494 0.467595 0.257935 1.9046 0.257935 3.67723V16.5155C0.257935 18.2882 1.69494 19.7252 3.46757 19.7252H5.87491C11.1927 19.7252 15.5037 15.4142 15.5037 10.0964C15.5037 4.77855 11.1927 0.467595 5.87491 0.467595H3.46757Z" fill="white"/>
</svg>
